<?xml version="1.0" standalone="no"?>
<!DOCTYPE svg PUBLIC "-//W3C//DTD SVG 20010904//EN"
 "http://www.w3.org/TR/2001/REC-SVG-20010904/DTD/svg10.dtd">
<svg version="1.0" xmlns="http://www.w3.org/2000/svg"
 width="425.000000pt" height="425.000000pt" viewBox="0 0 425.000000 425.000000"
 preserveAspectRatio="xMidYMid meet">

<g transform="translate(0.000000,425.000000) scale(0.100000,-0.100000)"
fill="#000000" stroke="none">
<path d="M1881 3499 c-49 -5 -106 -19 -135 -33 -28 -13 -73 -29 -101 -36 -252
-66 -443 -259 -538 -541 -101 -302 -141 -926 -97 -1514 27 -361 101 -487 293
-502 91 -7 107 -15 107 -54 l0 -31 93 4 c50 2 173 -1 272 -9 222 -16 450 -16
660 -2 210 14 290 15 347 5 63 -11 98 -2 98 27 0 12 4 28 8 35 12 18 69 32
130 32 139 0 209 95 246 335 49 326 42 1051 -14 1400 -16 103 -57 259 -91 346
-56 146 -163 280 -289 364 -81 54 -138 79 -250 110 -47 14 -112 34 -145 46
-53 19 -85 22 -285 25 -124 1 -263 -2 -309 -7z m529 -38 c57 -10 116 -29 109
-35 -2 -3 -29 2 -59 10 -120 31 -594 27 -687 -6 -26 -9 -27 -9 -9 5 23 18 52
23 171 35 104 10 394 4 475 -9z m-67 -41 c126 -11 176 -26 219 -67 39 -38 55
-90 73 -238 19 -165 19 -208 -1 -246 -28 -55 -44 -57 -484 -65 -397 -7 -407
-6 -453 14 -58 26 -87 70 -87 132 0 73 38 317 54 347 23 44 55 74 103 95 75
33 352 46 576 28z m-713 -82 c-27 -61 -63 -332 -58 -443 3 -87 5 -93 40 -141
21 -28 34 -55 30 -59 -4 -5 -1 -5 5 -1 7 4 25 -2 40 -13 33 -24 184 -81 215
-81 12 0 18 -3 14 -7 -4 -5 -96 -11 -204 -15 -246 -8 -298 -20 -418 -95 -64
-40 -116 -100 -151 -172 -26 -56 -52 -202 -53 -293 0 -44 -2 -48 -25 -48 l-25
0 0 103 c0 137 26 425 50 567 27 151 80 317 131 410 61 110 189 234 298 288
46 23 94 42 107 42 l23 0 -19 -42z m1053 11 c-4 -15 -8 -17 -14 -8 -6 11 4 28
18 29 0 0 -1 -9 -4 -21z m47 1 c8 -5 11 -10 5 -10 -5 0 -17 5 -25 10 -8 5 -10
10 -5 10 6 0 17 -5 25 -10z m124 -69 c3 -5 -19 4 -49 21 -30 16 -55 31 -55 34
0 7 98 -45 104 -55z m-109 39 c3 -5 1 -10 -4 -10 -6 0 -11 5 -11 10 0 6 2 10
4 10 3 0 8 -4 11 -10z m170 -88 c-3 -3 -11 0 -18 7 -9 10 -8 11 6 5 10 -3 15
-9 12 -12z m86 -89 c13 -16 12 -17 -3 -4 -17 13 -22 21 -14 21 2 0 10 -8 17
-17z m67 -148 c-3 -3 -9 2 -12 12 -6 14 -5 15 5 6 7 -7 10 -15 7 -18z m72
-114 c0 -5 -7 -12 -16 -15 -14 -5 -15 -4 -4 9 14 17 20 19 20 6z m7 -43 c-3
-8 -6 -5 -6 6 -1 11 2 17 5 13 3 -3 4 -12 1 -19z m-10 -40 c-3 -8 -6 -5 -6 6
-1 11 2 17 5 13 3 -3 4 -12 1 -19z m20 0 c-3 -8 -6 -5 -6 6 -1 11 2 17 5 13 3
-3 4 -12 1 -19z m10 -40 c-3 -8 -6 -5 -6 6 -1 11 2 17 5 13 3 -3 4 -12 1 -19z
m0 -100 c-3 -8 -6 -5 -6 6 -1 11 2 17 5 13 3 -3 4 -12 1 -19z m30 -50 c-3 -8
-6 -5 -6 6 -1 11 2 17 5 13 3 -3 4 -12 1 -19z m10 -65 c-3 -10 -5 -4 -5 12 0
17 2 24 5 18 2 -7 2 -21 0 -30z m-20 -40 c-3 -10 -5 -2 -5 17 0 19 2 27 5 18
2 -10 2 -26 0 -35z m30 -50 c-3 -10 -5 -4 -5 12 0 17 2 24 5 18 2 -7 2 -21 0
-30z m-17 -57 c-7 -7 -10 4 -9 30 1 39 1 39 10 9 5 -18 5 -33 -1 -39z m39
-205 c0 -35 -2 -62 -5 -59 -3 4 -7 64 -9 135 -2 101 -1 113 5 58 4 -38 8 -99
9 -134z m-1463 161 c18 -12 23 -40 9 -52 -9 -8 -15 -8 -20 0 -3 6 -11 8 -16 4
-6 -4 -6 -10 1 -19 14 -17 -15 -29 -40 -15 -35 19 -37 74 -2 83 28 8 56 7 68
-1z m579 -32 c3 -6 -1 -17 -9 -26 -18 -18 -21 -39 -4 -28 7 5 8 3 3 -5 -5 -9
-10 -10 -18 -2 -6 6 -19 11 -28 11 -27 0 -30 15 -8 38 21 23 54 29 64 12z
m852 -67 c-2 -16 -4 -3 -4 27 0 30 2 43 4 28 2 -16 2 -40 0 -55z m-623 30 c2
-10 -8 -33 -22 -51 -19 -25 -22 -35 -13 -46 9 -11 9 -16 0 -22 -8 -4 -9 -3 -5
4 4 7 3 12 -3 12 -16 0 -33 -39 -28 -61 5 -18 4 -18 -24 1 -15 12 -31 25 -34
30 -3 5 11 40 32 77 27 47 46 69 63 73 30 8 31 7 34 -17z m33 -3 c11 -16 10
-18 -1 -14 -15 6 -30 34 -18 34 4 0 13 -9 19 -20z m-186 -151 c162 -136 177
-149 134 -123 -16 10 -33 23 -36 28 -4 5 -12 5 -18 2 -6 -4 -11 -2 -11 4 0 6
-4 8 -10 5 -16 -10 -12 -21 15 -35 25 -14 33 -30 15 -30 -11 0 -54 30 -147
103 -39 31 -60 54 -56 63 4 10 0 12 -11 8 -9 -4 -28 5 -47 21 -18 14 -38 24
-45 21 -23 -9 -26 12 -4 34 40 40 66 28 221 -101z m151 92 c-9 -16 -18 -28
-21 -26 -4 5 27 55 34 55 2 0 -4 -13 -13 -29z m-577 2 c50 -8 102 -16 118 -17
15 0 27 -5 27 -10 0 -6 10 -20 22 -33 14 -15 17 -22 8 -19 -57 18 -71 16 -95
-10 l-25 -26 -87 26 c-150 46 -173 56 -173 75 0 10 3 21 7 24 11 12 105 7 198
-10z m755 -53 c-13 -8 -12 -10 5 -11 17 -1 17 -2 3 -6 -10 -2 -19 -10 -20 -16
0 -7 -2 -16 -3 -22 -2 -5 -3 -15 -4 -22 0 -7 -7 -10 -14 -8 -7 3 -20 -9 -30
-27 -10 -18 -24 -41 -32 -52 -14 -18 -15 -18 -39 1 l-24 20 41 66 c44 68 65
85 107 86 20 1 22 -1 10 -9z m-1001 -95 l96 -95 -43 0 c-40 0 -49 5 -108 62
-56 54 -68 61 -84 51 -15 -10 -19 -9 -24 4 -13 33 16 69 58 72 5 1 52 -42 105
-94z m-232 46 c33 -31 59 -70 55 -84 -1 -5 2 -6 7 -3 5 3 15 -2 22 -11 12 -14
12 -16 -1 -8 -13 8 -13 7 -1 -8 12 -15 11 -17 -12 -17 -18 0 -39 16 -74 55
-27 30 -52 52 -56 49 -4 -4 -3 -12 0 -18 17 -26 11 -40 -8 -17 -24 29 -25 67
-1 80 26 15 34 13 69 -18z m1696 -19 c4 -21 3 -31 -3 -27 -6 3 -10 20 -10 37
0 38 5 34 13 -10z m-988 -5 c23 -8 40 -20 40 -29 0 -9 20 -32 43 -52 l44 -36
-35 0 c-25 0 -49 10 -80 34 -63 48 -105 68 -127 61 -15 -5 -20 -2 -20 12 0 43
32 46 135 10z m-341 -2 c39 -17 42 -20 24 -31 -7 -4 -8 -3 -4 4 4 7 2 12 -3
12 -6 0 -12 -4 -12 -10 -1 -5 -2 -15 -3 -21 0 -7 -8 -16 -17 -22 -20 -13 -59
23 -54 50 2 10 4 21 4 26 1 11 25 8 65 -8z m1337 -105 c5 0 7 11 3 25 -4 15
-2 25 5 25 6 0 11 -13 11 -30 0 -23 -4 -30 -20 -30 -17 0 -20 6 -18 38 1 36 1
36 5 5 2 -18 9 -33 14 -33z m-1151 42 c0 -4 -7 -18 -16 -30 -11 -16 -25 -22
-55 -22 l-39 0 16 26 c9 14 23 23 30 20 7 -3 16 -1 19 4 7 12 45 13 45 2z
m-435 -32 c3 -5 1 -10 -4 -10 -6 0 -11 5 -11 10 0 6 2 10 4 10 3 0 8 -4 11
-10z m1208 3 c-7 -2 -19 -2 -25 0 -7 3 -2 5 12 5 14 0 19 -2 13 -5z m-1448
-77 c44 -9 175 -22 290 -30 193 -12 201 -13 98 -15 -199 -2 -501 32 -527 60
-13 13 16 10 139 -15z m1594 14 c-30 -17 -216 -40 -411 -50 -105 -6 -193 -8
-195 -6 -3 2 40 7 94 10 265 17 388 29 431 41 59 16 105 19 81 5z m-1908 -340
c7 -353 14 -414 60 -515 12 -27 23 -56 25 -63 1 -8 6 -17 10 -20 4 -4 4 1 1
10 -5 13 5 10 35 -12 23 -17 47 -30 54 -30 6 0 17 -14 23 -31 l11 -32 -51 6
c-64 8 -93 26 -129 84 -57 89 -79 255 -87 661 l-6 284 24 -4 24 -3 6 -335z
m164 307 c40 -27 145 -41 466 -63 l87 -6 4 -106 c4 -134 18 -162 100 -200 l58
-27 0 -262 0 -263 -92 0 c-81 0 -353 20 -459 34 -110 14 -154 67 -180 216 -14
79 -25 690 -12 690 5 0 17 -6 28 -13z m939 -41 c19 -8 37 -19 41 -26 4 -7 -5
-5 -23 4 -43 22 -110 20 -150 -4 -37 -23 -46 -25 -36 -9 9 16 85 49 112 49 12
0 38 -6 56 -14z m1033 -63 c-3 -10 -5 -2 -5 17 0 19 2 27 5 18 2 -10 2 -26 0
-35z m-1032 13 c19 -8 44 -30 55 -48 19 -32 20 -49 20 -431 0 -439 0 -441 -62
-473 -40 -21 -120 -14 -149 12 -47 42 -49 60 -49 466 0 429 1 435 71 470 41
22 69 22 114 4z m1032 -113 c-3 -10 -5 -2 -5 17 0 19 2 27 5 18 2 -10 2 -26 0
-35z m0 -80 c-3 -10 -5 -4 -5 12 0 17 2 24 5 18 2 -7 2 -21 0 -30z m12 -157
c2 -86 -5 -65 -11 34 -3 47 -2 72 2 55 4 -16 8 -57 9 -89z m-17 -185 c-5 -3
-12 -20 -15 -36 -3 -24 -4 -21 -6 13 0 24 3 41 7 38 5 -3 7 32 6 77 l-2 82 10
-83 c8 -59 8 -86 0 -91z m-61 -284 c-10 -9 -11 -8 -5 6 3 10 9 15 12 12 3 -3
0 -11 -7 -18z m-1686 -122 l40 -27 -35 6 c-46 9 -106 49 -130 89 -36 58 -21
63 33 10 28 -27 70 -63 92 -78z"/>
<path d="M1938 3375 c-123 -11 -141 -15 -172 -39 -44 -33 -52 -60 -71 -229
-20 -187 -20 -203 8 -231 l24 -24 390 -7 c427 -8 435 -7 461 48 11 23 10 54
-7 201 -11 103 -26 187 -35 205 -26 49 -66 63 -221 77 -165 15 -196 15 -377
-1z m374 -54 c61 -39 125 -161 84 -161 -8 0 -20 16 -26 35 -16 47 -57 95 -97
111 -49 21 -245 19 -290 -3 -37 -17 -77 -70 -88 -115 -5 -18 -14 -28 -26 -28
-16 0 -17 4 -9 25 53 140 93 164 276 165 127 0 131 -1 176 -29z m-170 -56 c0
-5 -5 -11 -11 -13 -6 -2 -11 4 -11 13 0 9 5 15 11 13 6 -2 11 -8 11 -13z m-67
-25 c-5 -8 -11 -8 -17 -2 -6 6 -7 16 -3 22 5 8 11 8 17 2 6 -6 7 -16 3 -22z
m143 18 c-6 -18 -28 -21 -28 -4 0 9 7 16 16 16 9 0 14 -5 12 -12z m52 -64 c0
-16 -16 -19 -25 -4 -8 13 4 32 16 25 5 -4 9 -13 9 -21z m-240 1 c0 -8 -7 -15
-15 -15 -8 0 -15 7 -15 15 0 8 7 15 15 15 8 0 15 -7 15 -15z m158 -21 c37 -26
71 -114 44 -114 -8 0 -15 7 -62 58 -34 37 -90 9 -90 -45 0 -16 -6 -23 -20 -23
-28 0 -34 22 -20 64 22 67 96 97 148 60z m-210 -46 c-6 -18 -28 -21 -28 -4 0
9 7 16 16 16 9 0 14 -5 12 -12z m340 0 c-6 -18 -28 -21 -28 -4 0 9 7 16 16 16
9 0 14 -5 12 -12z m-164 -34 c8 -21 -1 -34 -25 -34 -12 0 -19 7 -19 18 0 34
33 45 44 16z m-179 -84 c-3 -5 -24 -10 -46 -10 -24 0 -38 4 -34 10 3 6 24 10
46 10 24 0 38 -4 34 -10z m-22 -59 c-6 -25 -31 -35 -49 -20 -25 21 -16 39 20
39 29 0 33 -3 29 -19z"/>
<path d="M2485 2189 c-4 -6 -5 -12 -2 -15 2 -3 7 2 10 11 7 17 1 20 -8 4z"/>
<path d="M2375 2100 c3 -5 8 -10 11 -10 2 0 4 5 4 10 0 6 -5 10 -11 10 -5 0
-7 -4 -4 -10z"/>
<path d="M2440 2080 c0 -5 5 -10 11 -10 5 0 7 5 4 10 -3 6 -8 10 -11 10 -2 0
-4 -4 -4 -10z"/>
<path d="M2058 2153 c7 -3 16 -2 19 1 4 3 -2 6 -13 5 -11 0 -14 -3 -6 -6z"/>
<path d="M1690 2100 c0 -5 5 -10 11 -10 5 0 7 5 4 10 -3 6 -8 10 -11 10 -2 0
-4 -4 -4 -10z"/>
<path d="M1550 2050 c0 -5 5 -10 10 -10 6 0 10 5 10 10 0 6 -4 10 -10 10 -5 0
-10 -4 -10 -10z"/>
<path d="M1865 2071 c-3 -5 -1 -12 5 -16 5 -3 10 1 10 9 0 18 -6 21 -15 7z"/>
<path d="M1200 956 c0 -2 8 -10 18 -17 15 -13 16 -12 3 4 -13 16 -21 21 -21
13z"/>
</g>
</svg>
